<svg width="91" height="103" viewBox="0 0 91 103" fill="none" xmlns="http://www.w3.org/2000/svg">
<path d="M74.9286 25.75C74.9286 34.682 69.8259 42.5479 62.0714 47.1547V51.5C62.0714 55.0607 59.1987 57.9375 55.6429 57.9375H36.1763C32.8013 57.9375 29.7478 55.0607 29.7478 51.5V47.1547C22.1741 42.5479 16.8906 34.682 16.8906 25.75C16.8906 11.5292 30.029 0 45.8192 0C61.971 0 74.9286 11.5292 74.9286 25.75ZM34.5692 35.4062C38.3058 35.4062 40.9978 32.5295 40.9978 28.9688C40.9978 25.408 38.3058 22.5312 34.5692 22.5312C31.1942 22.5312 28.1406 25.408 28.1406 28.9688C28.1406 32.5295 31.1942 35.4062 34.5692 35.4062ZM57.25 22.5312C53.6942 22.5312 50.8214 25.408 50.8214 28.9688C50.8214 32.5295 53.6942 35.4062 57.25 35.4062C60.8058 35.4062 63.6786 32.5295 63.6786 28.9688C63.6786 25.408 60.8058 22.5312 57.25 22.5312ZM1.67861 55.0607C3.26606 51.8822 7.12722 50.5947 10.3033 52.184L45.8192 70.048L81.6987 52.184C84.8728 50.5947 88.7299 51.8822 90.317 55.0607C91.904 58.2393 90.6183 62.1018 87.4442 63.691L60.3839 77.25L87.4442 90.809C90.6183 92.3982 91.904 96.2607 90.317 99.4393C88.7299 102.618 84.8728 103.905 81.6987 102.316L45.8192 84.452L10.3033 102.316C7.12722 103.905 3.26606 102.618 1.67861 99.4393C0.0907511 96.2607 1.37787 92.3982 4.55379 90.809L31.6161 77.25L4.55379 63.691C1.37787 62.1018 0.0907511 58.2393 1.67861 55.0607Z" fill="#FF0000"/>
</svg>
