<svg width="100" height="91" viewBox="0 0 100 91" fill="none" xmlns="http://www.w3.org/2000/svg">
  <path fill-rule="evenodd" clip-rule="evenodd"
    d="M49.9971 9.37697C52.608 7.34143 55.3109 5.60469 58.0571 4.19936C67.3563 -0.559416 77.7973 -1.77248 86.5048 3.28181C95.211 8.33536 99.3851 18.03 99.9354 28.5032C100.489 39.0336 97.4836 51.0499 91.0638 62.2292L91.0638 62.2293C84.644 73.4083 75.7953 82.034 66.446 86.8184C59.3035 90.4734 51.4875 92.0368 44.3008 90.2752C43.7478 90.341 43.1743 90.3139 42.6004 90.1812C30.0004 87.2682 17.329 76.8438 8.93633 62.2292L13.2452 59.732L8.93632 62.2292C2.51651 51.0499 -0.488708 39.0337 0.0645904 28.5033C0.614889 18.03 4.78894 8.33537 13.4952 3.2818L13.4952 3.28179C24.7536 -3.25308 38.6868 0.586915 49.9971 9.37697ZM25.1632 67.7473C22.4118 64.7152 19.8303 61.1984 17.554 57.2347C11.9536 47.4823 9.56181 37.3646 9.99973 29.0301C10.4406 20.6386 13.646 14.7375 18.4725 11.9359C24.4182 8.48477 33.3973 9.6171 42.5671 16.2624C39.1972 19.9348 36.1085 24.141 33.4396 28.7886C27.0198 39.9678 24.0146 51.984 24.5678 62.5144C24.661 64.2873 24.858 66.0378 25.1632 67.7473ZM42.9757 79.0819C47.801 81.8827 54.4838 81.723 61.9303 77.9124C69.3267 74.1274 76.8456 66.987 82.4461 57.2346C88.0465 47.4822 90.4382 37.3646 90.0003 29.0301C89.5593 20.6386 86.3539 14.7375 81.5274 11.9359L84.0161 7.60887L81.5274 11.9359C76.7021 9.13506 70.0193 9.2947 62.5729 13.1053C55.1765 16.8903 47.6577 24.0307 42.0573 33.7831L37.7484 31.2859L42.0573 33.7832C36.4569 43.5355 34.0651 53.6531 34.503 61.9876C34.9439 70.3791 38.1492 76.2803 42.9757 79.0819Z"
    fill="url(#paint0_linear_117_2)" />
  <defs>
    <linearGradient id="paint0_linear_117_2" x1="50" y1="0" x2="50" y2="91" gradientUnits="userSpaceOnUse">
      <stop stop-color="#FCDDEC" />
      <stop offset="1" stop-color="#EF5DA8" />
    </linearGradient>
  </defs>
</svg>